<svg xmlns="http://www.w3.org/2000/svg" width="375" viewBox="0 0 375 375" height="375" version="1.0"><defs><clipPath id="a"><path d="M 201 266 L 290 266 L 290 345.796875 L 201 345.796875 Z M 201 266"/></clipPath></defs><path fill="#FFF" d="M-37.5 -37.5H412.5V412.5H-37.5z"/><path fill="#FFF" d="M-37.5 -37.5H412.5V412.5H-37.5z"/><path fill="#FF66C4" d="M-37.5 -37.5H412.5V412.5H-37.5z"/><path fill="#FFF" d="M 185.632812 235.46875 C 183.839844 235.46875 182.132812 234.757812 180.871094 233.496094 C 132.769531 185.34375 83.019531 135.550781 83.019531 84.765625 C 83.019531 54.582031 107.539062 30.023438 137.675781 30.023438 C 158.753906 30.023438 176.492188 39.074219 185.703125 53.15625 C 194.742188 38.25 211.367188 30.023438 233.546875 30.023438 C 263.703125 30.023438 288.230469 54.582031 288.230469 84.765625 C 288.230469 135.507812 238.5625 185.253906 190.527344 233.359375 L 190.386719 233.496094 C 189.128906 234.757812 187.414062 235.46875 185.632812 235.46875 Z M 137.675781 43.507812 C 114.972656 43.507812 96.492188 62.007812 96.492188 84.761719 C 96.492188 128.410156 141.003906 174.464844 185.621094 219.191406 C 230.226562 174.464844 274.757812 128.414062 274.757812 84.761719 C 274.757812 62.007812 256.269531 43.507812 233.546875 43.507812 C 217.089844 43.507812 196.5625 48.796875 192.261719 74.011719 C 191.691406 77.351562 188.722656 79.757812 185.347656 79.613281 C 181.964844 79.476562 179.207031 76.839844 178.921875 73.464844 C 177.195312 53.796875 156.871094 43.507812 137.675781 43.507812 Z M 137.675781 43.507812"/><path fill="#FFF" d="M 208.757812 137.9375 L 161.882812 137.9375 C 157.238281 137.9375 153.472656 134.167969 153.472656 129.511719 C 153.472656 124.855469 157.238281 121.09375 161.882812 121.09375 L 208.757812 121.09375 C 213.40625 121.09375 217.171875 124.859375 217.171875 129.511719 C 217.171875 134.167969 213.40625 137.9375 208.757812 137.9375 Z M 208.757812 137.9375"/><path fill="#FFF" d="M 185.316406 161.402344 C 180.667969 161.402344 176.902344 157.625 176.902344 152.976562 L 176.902344 106.050781 C 176.902344 101.390625 180.667969 97.621094 185.316406 97.621094 C 189.964844 97.621094 193.734375 101.390625 193.734375 106.050781 L 193.734375 152.976562 C 193.734375 157.625 189.964844 161.402344 185.316406 161.402344 Z M 185.316406 161.402344"/><path fill="#FFF" d="M 92.382812 304.855469 C 90.417969 304.855469 88.488281 303.996094 87.175781 302.390625 C 84.863281 299.574219 81.867188 295.988281 78.390625 291.839844 C 67.320312 278.605469 52.15625 260.484375 40.191406 244.460938 C 37.160156 240.429688 28.902344 225.105469 21.886719 207.972656 C 12.691406 185.511719 9.238281 168.972656 11.628906 158.804688 L 25.4375 100.164062 C 26.796875 94.410156 31.316406 90.695312 36.949219 90.695312 C 48.332031 90.695312 60.476562 105.445312 61.089844 130.132812 C 61.097656 130.636719 61.058594 131.136719 60.960938 131.632812 L 60.78125 132.550781 C 57.125 150.691406 55.292969 159.792969 56.5625 167.121094 C 56.890625 168.984375 57.4375 170.851562 58.234375 172.847656 C 61 168.683594 65.453125 166.320312 70.621094 166.320312 C 78.914062 166.320312 88.496094 172.175781 99.082031 183.722656 C 103.707031 188.214844 109.4375 193.921875 118.6875 204.597656 C 120.914062 207.171875 122.542969 208.964844 123.855469 210.398438 C 128.617188 215.632812 129.289062 216.695312 130.523438 223.457031 C 130.867188 225.347656 131.332031 227.933594 132.167969 231.679688 L 141.542969 273.714844 C 142.203125 276.664062 140.816406 279.691406 138.160156 281.117188 L 95.582031 304.058594 C 94.5625 304.589844 93.464844 304.855469 92.382812 304.855469 Z M 38.195312 104.734375 L 24.742188 161.890625 C 20.777344 178.765625 45.792969 229.484375 50.964844 236.375 C 62.726562 252.109375 77.75 270.066406 88.722656 283.179688 C 90.652344 285.492188 92.4375 287.621094 94.046875 289.554688 L 127.28125 271.65625 L 119.015625 234.609375 C 118.121094 230.597656 117.621094 227.855469 117.269531 225.851562 C 117 224.402344 116.730469 222.910156 116.566406 222.59375 C 116.34375 222.167969 115.207031 220.921875 113.898438 219.472656 C 112.605469 218.058594 110.839844 216.125 108.503906 213.425781 C 99.503906 203.046875 94 197.574219 89.554688 193.257812 C 89.460938 193.164062 89.363281 193.0625 89.277344 192.964844 C 77.820312 180.433594 71.722656 179.800781 70.617188 179.800781 C 69.769531 179.800781 69.617188 180.003906 69.371094 180.429688 C 68.105469 182.652344 68.019531 189.40625 73.082031 198.1875 C 73.40625 198.601562 73.785156 199.066406 74.199219 199.574219 L 74.96875 200.488281 C 77.234375 203.164062 81.953125 208.730469 91.199219 219.890625 C 91.253906 219.960938 91.304688 220.03125 91.359375 220.097656 C 93.359375 222.722656 93.757812 225.328125 92.515625 227.835938 C 91.378906 230.136719 89.042969 231.597656 86.472656 231.597656 C 83.285156 231.597656 81.949219 230.019531 79.292969 226.882812 C 78.066406 225.429688 76.382812 223.425781 74.542969 221.210938 C 70.800781 216.703125 66.5 211.476562 63.832031 208.195312 C 62.667969 206.824219 62.195312 206.25 61.785156 205.585938 L 60.40625 203.433594 C 39.96875 171.464844 39.605469 169.40625 47.550781 129.890625 L 47.589844 129.734375 C 47.039062 114.0625 41.21875 106.707031 38.195312 104.734375 Z M 38.195312 104.734375"/><path fill="#FFF" d="M 108.019531 342.015625 C 107.371094 342.015625 106.71875 341.921875 106.085938 341.726562 C 104.375 341.214844 102.9375 340.039062 102.089844 338.464844 L 83.089844 303.089844 C 82.242188 301.515625 82.046875 299.671875 82.566406 297.957031 C 83.089844 296.246094 84.25 294.804688 85.835938 293.960938 L 141.3125 264.101562 C 144.578125 262.339844 148.671875 263.566406 150.429688 266.84375 L 169.433594 302.191406 C 170.277344 303.765625 170.46875 305.613281 169.953125 307.332031 C 169.445312 309.042969 168.265625 310.480469 166.695312 311.332031 L 111.21875 341.210938 C 110.222656 341.742188 109.125 342.015625 108.019531 342.015625 Z M 98.144531 302.648438 L 110.765625 326.136719 L 154.382812 302.648438 L 141.761719 279.171875 Z M 98.144531 302.648438"/><path fill="#FFF" d="M 279.1875 307.933594 C 278.101562 307.933594 277 307.671875 276.003906 307.128906 L 233.394531 284.1875 C 230.734375 282.757812 229.34375 279.730469 230.007812 276.78125 L 239.398438 234.75 C 240.246094 230.980469 240.710938 228.382812 241.050781 226.492188 C 242.269531 219.738281 242.949219 218.671875 247.738281 213.433594 C 249.042969 212.003906 250.671875 210.222656 252.882812 207.675781 C 262.136719 197.003906 267.863281 191.289062 272.496094 186.796875 C 283.078125 175.25 292.65625 169.394531 300.953125 169.394531 C 306.113281 169.394531 310.566406 171.757812 313.324219 175.917969 C 314.128906 173.921875 314.679688 172.054688 315.007812 170.1875 C 316.273438 162.867188 314.445312 153.761719 310.792969 135.625 L 310.613281 134.710938 C 310.515625 134.214844 310.46875 133.714844 310.476562 133.210938 C 311.097656 108.519531 323.238281 93.761719 334.621094 93.761719 C 340.253906 93.761719 344.765625 97.472656 346.105469 103.21875 L 359.917969 161.878906 C 365.675781 186.285156 335.683594 241.761719 331.390625 247.527344 C 319.40625 263.5625 304.234375 281.691406 293.164062 294.921875 C 289.699219 299.070312 286.699219 302.652344 284.390625 305.464844 C 283.070312 307.074219 281.152344 307.933594 279.1875 307.933594 Z M 244.265625 274.742188 L 277.515625 292.640625 C 279.113281 290.714844 280.902344 288.578125 282.832031 286.269531 C 293.808594 273.15625 308.835938 255.199219 320.59375 239.464844 C 325.921875 232.300781 350.835938 182.070312 346.796875 164.980469 L 333.355469 107.804688 C 330.351562 109.785156 324.53125 117.144531 323.960938 132.808594 L 324 132.964844 C 331.953125 172.480469 331.585938 174.539062 311.125 206.488281 L 309.742188 208.648438 C 309.328125 209.324219 308.808594 209.945312 307.695312 211.269531 C 305.082031 214.503906 300.878906 219.613281 296.992188 224.300781 C 295.148438 226.515625 293.484375 228.515625 292.25 229.964844 C 289.621094 233.078125 288.296875 234.636719 285.152344 234.671875 C 285.125 234.671875 285.097656 234.671875 285.082031 234.671875 C 282.527344 234.671875 280.191406 233.230469 279.058594 230.941406 C 277.792969 228.425781 278.179688 225.8125 280.191406 223.171875 C 280.25 223.105469 280.296875 223.035156 280.355469 222.964844 C 289.121094 212.375 293.726562 206.925781 296.1875 204 L 297.292969 202.683594 C 297.722656 202.152344 298.113281 201.671875 298.449219 201.25 C 303.515625 192.472656 303.445312 185.722656 302.179688 183.503906 C 301.929688 183.082031 301.773438 182.878906 300.941406 182.878906 C 299.839844 182.878906 293.734375 183.507812 282.28125 196.042969 C 282.195312 196.136719 282.101562 196.242188 282 196.335938 C 277.546875 200.652344 272.050781 206.128906 263.046875 216.507812 C 260.714844 219.1875 258.960938 221.117188 257.667969 222.523438 C 256.398438 223.910156 255.203125 225.21875 254.984375 225.644531 C 254.820312 225.945312 254.558594 227.433594 254.292969 228.875 C 253.9375 230.882812 253.433594 233.644531 252.535156 237.691406 Z M 244.265625 274.742188"/><g clip-path="url(#a)"><path fill="#FFF" d="M 263.550781 345.070312 C 262.445312 345.070312 261.347656 344.796875 260.351562 344.265625 L 204.871094 314.40625 C 203.300781 313.5625 202.125 312.121094 201.617188 310.40625 C 201.097656 308.691406 201.289062 306.847656 202.128906 305.269531 L 221.140625 269.921875 C 222.902344 266.640625 226.988281 265.417969 230.253906 267.175781 L 285.71875 297.039062 C 288.992188 298.800781 290.21875 302.890625 288.457031 306.167969 L 269.480469 341.515625 C 268.632812 343.089844 267.195312 344.265625 265.488281 344.78125 C 264.847656 344.972656 264.199219 345.070312 263.550781 345.070312 Z M 217.191406 305.726562 L 260.796875 329.195312 L 273.398438 305.726562 L 229.800781 282.253906 Z M 217.191406 305.726562"/></g></svg>