<svg xmlns="http://www.w3.org/2000/svg" width="375" viewBox="0 0 375 375" height="375" version="1.0"><defs><clipPath id="a"><path d="M 77 21.09375 L 294 21.09375 L 294 239 L 77 239 Z M 77 21.09375"/></clipPath></defs><g clip-path="url(#a)"><path fill="#FF66C4" d="M 185.675781 238.015625 C 183.789062 238.015625 181.988281 237.265625 180.660156 235.9375 C 130.027344 185.277344 77.660156 132.886719 77.660156 79.453125 C 77.660156 47.691406 103.46875 21.855469 135.195312 21.855469 C 157.378906 21.855469 176.050781 31.375 185.746094 46.195312 C 195.261719 30.511719 212.761719 21.855469 236.109375 21.855469 C 267.851562 21.855469 293.671875 47.691406 293.671875 79.453125 C 293.671875 132.839844 241.386719 185.179688 190.824219 235.792969 L 190.679688 235.9375 C 189.355469 237.265625 187.550781 238.015625 185.675781 238.015625 Z M 135.195312 36.042969 C 111.292969 36.042969 91.839844 55.507812 91.839844 79.445312 C 91.839844 125.371094 138.695312 173.832031 185.664062 220.886719 C 232.613281 173.832031 279.488281 125.375 279.488281 79.445312 C 279.488281 55.507812 260.027344 36.042969 236.109375 36.042969 C 218.785156 36.042969 197.175781 41.605469 192.648438 68.136719 C 192.054688 71.652344 188.925781 74.183594 185.371094 74.027344 C 181.8125 73.886719 178.910156 71.113281 178.609375 67.5625 C 176.792969 46.867188 155.398438 36.042969 135.195312 36.042969 Z M 135.195312 36.042969"/></g><path fill="#FF66C4" d="M 210.015625 135.394531 L 160.675781 135.394531 C 155.785156 135.394531 151.820312 131.429688 151.820312 126.535156 C 151.820312 121.632812 155.785156 117.675781 160.675781 117.675781 L 210.015625 117.675781 C 214.910156 117.675781 218.871094 121.636719 218.871094 126.535156 C 218.871094 131.429688 214.910156 135.394531 210.015625 135.394531 Z M 210.015625 135.394531"/><path fill="#FF66C4" d="M 185.339844 160.082031 C 180.445312 160.082031 176.484375 156.113281 176.484375 151.222656 L 176.484375 101.847656 C 176.484375 96.945312 180.445312 92.980469 185.339844 92.980469 C 190.234375 92.980469 194.203125 96.945312 194.203125 101.847656 L 194.203125 151.222656 C 194.203125 156.113281 190.234375 160.082031 185.339844 160.082031 Z M 185.339844 160.082031"/><path fill="#FF66C4" d="M 87.515625 311.019531 C 85.445312 311.019531 83.417969 310.117188 82.035156 308.425781 C 79.597656 305.460938 76.445312 301.691406 72.789062 297.328125 C 61.136719 283.402344 45.171875 264.335938 32.578125 247.476562 C 29.386719 243.234375 20.691406 227.113281 13.308594 209.085938 C 3.628906 185.453125 -0.00390625 168.050781 2.511719 157.355469 L 17.046875 95.65625 C 18.476562 89.601562 23.234375 85.6875 29.164062 85.6875 C 41.144531 85.6875 53.929688 101.210938 54.578125 127.1875 C 54.585938 127.714844 54.542969 128.242188 54.4375 128.761719 L 54.25 129.730469 C 50.402344 148.816406 48.472656 158.394531 49.808594 166.101562 C 50.152344 168.0625 50.730469 170.027344 51.570312 172.125 C 54.480469 167.746094 59.167969 165.261719 64.609375 165.261719 C 73.339844 165.261719 83.425781 171.421875 94.566406 183.566406 C 99.433594 188.296875 105.464844 194.304688 115.203125 205.535156 C 117.550781 208.242188 119.265625 210.128906 120.644531 211.636719 C 125.660156 217.144531 126.363281 218.261719 127.664062 225.375 C 128.027344 227.367188 128.511719 230.085938 129.394531 234.027344 L 139.261719 278.253906 C 139.957031 281.359375 138.496094 284.542969 135.703125 286.042969 L 90.882812 310.179688 C 89.8125 310.742188 88.65625 311.019531 87.515625 311.019531 Z M 30.476562 100.460938 L 16.316406 160.601562 C 12.140625 178.355469 38.476562 231.71875 43.917969 238.964844 C 56.300781 255.523438 72.113281 274.417969 83.664062 288.214844 C 85.695312 290.644531 87.574219 292.886719 89.269531 294.921875 L 124.25 276.089844 L 115.550781 237.113281 C 114.609375 232.886719 114.082031 230.003906 113.710938 227.894531 C 113.429688 226.371094 113.144531 224.800781 112.972656 224.46875 C 112.738281 224.019531 111.542969 222.707031 110.164062 221.1875 C 108.804688 219.695312 106.941406 217.660156 104.488281 214.820312 C 95.011719 203.902344 89.21875 198.144531 84.539062 193.601562 C 84.4375 193.503906 84.335938 193.398438 84.246094 193.292969 C 72.1875 180.109375 65.769531 179.441406 64.601562 179.441406 C 63.710938 179.441406 63.550781 179.65625 63.292969 180.105469 C 61.960938 182.445312 61.871094 189.550781 67.199219 198.792969 C 67.542969 199.222656 67.9375 199.710938 68.375 200.246094 L 69.1875 201.210938 C 71.570312 204.023438 76.539062 209.882812 86.269531 221.625 C 86.324219 221.699219 86.378906 221.769531 86.4375 221.84375 C 88.546875 224.605469 88.960938 227.34375 87.652344 229.984375 C 86.460938 232.40625 84 233.941406 81.292969 233.941406 C 77.9375 233.941406 76.535156 232.28125 73.738281 228.980469 C 72.445312 227.453125 70.675781 225.34375 68.734375 223.011719 C 64.796875 218.269531 60.269531 212.773438 57.460938 209.320312 C 56.238281 207.878906 55.742188 207.269531 55.308594 206.574219 L 53.859375 204.308594 C 32.339844 170.671875 31.960938 168.503906 40.324219 126.929688 L 40.367188 126.765625 C 39.785156 110.277344 33.65625 102.535156 30.476562 100.460938 Z M 30.476562 100.460938"/><path fill="#FF66C4" d="M 103.972656 350.117188 C 103.292969 350.117188 102.609375 350.019531 101.941406 349.8125 C 100.140625 349.273438 98.625 348.039062 97.734375 346.382812 L 77.734375 309.164062 C 76.839844 307.503906 76.636719 305.566406 77.183594 303.761719 C 77.734375 301.960938 78.957031 300.441406 80.625 299.554688 L 139.019531 268.140625 C 142.457031 266.289062 146.765625 267.578125 148.617188 271.027344 L 168.621094 308.214844 C 169.511719 309.875 169.710938 311.816406 169.171875 313.625 C 168.632812 315.425781 167.390625 316.9375 165.738281 317.832031 L 107.339844 349.269531 C 106.292969 349.832031 105.140625 350.117188 103.972656 350.117188 Z M 93.582031 308.695312 L 106.867188 333.414062 L 152.777344 308.695312 L 139.492188 283.996094 Z M 93.582031 308.695312"/><path fill="#FF66C4" d="M 284.152344 314.257812 C 283.007812 314.257812 281.851562 313.984375 280.800781 313.410156 L 235.949219 289.273438 C 233.148438 287.769531 231.683594 284.585938 232.382812 281.480469 L 242.269531 237.257812 C 243.160156 233.292969 243.648438 230.558594 244.007812 228.566406 C 245.292969 221.464844 246.007812 220.339844 251.046875 214.832031 C 252.421875 213.324219 254.132812 211.453125 256.464844 208.773438 C 266.203125 197.542969 272.230469 191.53125 277.109375 186.804688 C 288.246094 174.65625 298.332031 168.496094 307.0625 168.496094 C 312.496094 168.496094 317.183594 170.984375 320.085938 175.355469 C 320.933594 173.257812 321.511719 171.292969 321.855469 169.328125 C 323.191406 161.628906 321.265625 152.046875 317.421875 132.964844 L 317.230469 132 C 317.128906 131.480469 317.082031 130.953125 317.089844 130.425781 C 317.742188 104.445312 330.519531 88.914062 342.503906 88.914062 C 348.429688 88.914062 353.179688 92.824219 354.59375 98.867188 L 369.132812 160.589844 C 375.195312 186.265625 343.621094 244.636719 339.101562 250.703125 C 326.488281 267.574219 310.519531 286.644531 298.863281 300.570312 C 295.214844 304.929688 292.058594 308.699219 289.628906 311.660156 C 288.242188 313.351562 286.21875 314.257812 284.152344 314.257812 Z M 247.390625 279.335938 L 282.394531 298.167969 C 284.074219 296.140625 285.957031 293.894531 287.988281 291.464844 C 299.542969 277.667969 315.363281 258.773438 327.738281 242.21875 C 333.347656 234.679688 359.570312 181.832031 355.320312 163.847656 L 341.171875 103.691406 C 338.007812 105.773438 331.882812 113.519531 331.28125 130 L 331.324219 130.164062 C 339.695312 171.738281 339.308594 173.90625 317.769531 207.523438 L 316.316406 209.796875 C 315.878906 210.507812 315.332031 211.164062 314.160156 212.554688 C 311.410156 215.957031 306.988281 221.332031 302.890625 226.261719 C 300.953125 228.59375 299.203125 230.699219 297.902344 232.222656 C 295.136719 235.5 293.742188 237.140625 290.433594 237.175781 C 290.402344 237.175781 290.371094 237.175781 290.355469 237.175781 C 287.667969 237.175781 285.210938 235.660156 284.015625 233.25 C 282.683594 230.605469 283.089844 227.851562 285.210938 225.078125 C 285.269531 225.003906 285.320312 224.933594 285.382812 224.859375 C 294.609375 213.714844 299.457031 207.980469 302.046875 204.902344 L 303.210938 203.519531 C 303.660156 202.960938 304.074219 202.453125 304.425781 202.011719 C 309.761719 192.777344 309.6875 185.675781 308.351562 183.339844 C 308.09375 182.894531 307.929688 182.679688 307.050781 182.679688 C 305.890625 182.679688 299.464844 183.34375 287.410156 196.53125 C 287.316406 196.632812 287.21875 196.742188 287.113281 196.839844 C 282.425781 201.382812 276.636719 207.144531 267.164062 218.066406 C 264.707031 220.882812 262.863281 222.914062 261.5 224.394531 C 260.164062 225.855469 258.90625 227.230469 258.675781 227.675781 C 258.503906 227.996094 258.230469 229.5625 257.945312 231.074219 C 257.574219 233.191406 257.042969 236.09375 256.097656 240.355469 Z M 247.390625 279.335938"/><path fill="#FF66C4" d="M 267.691406 353.332031 C 266.527344 353.332031 265.371094 353.042969 264.324219 352.484375 L 205.925781 321.066406 C 204.269531 320.179688 203.035156 318.664062 202.5 316.859375 C 201.953125 315.054688 202.15625 313.117188 203.039062 311.457031 L 223.050781 274.265625 C 224.902344 270.8125 229.203125 269.527344 232.644531 271.375 L 291.027344 302.792969 C 294.472656 304.648438 295.761719 308.953125 293.910156 312.402344 L 273.933594 349.589844 C 273.042969 351.246094 271.53125 352.484375 269.730469 353.027344 C 269.058594 353.230469 268.371094 353.332031 267.691406 353.332031 Z M 218.890625 311.933594 L 264.796875 336.628906 L 278.058594 311.933594 L 232.167969 287.238281 Z M 218.890625 311.933594"/></svg>